<svg id="visual" viewBox="0 0 960 540" width="960" height="540" xmlns="http://www.w3.org/2000/svg" xmlns:xlink="http://www.w3.org/1999/xlink" version="1.1"><rect x="0" y="0" width="960" height="540" fill="#001220"></rect><defs><linearGradient id="grad1_0" x1="43.8%" y1="0%" x2="100%" y2="100%"><stop offset="14.444444444444446%" stop-color="#095dfe" stop-opacity="1"></stop><stop offset="85.55555555555554%" stop-color="#095dfe" stop-opacity="1"></stop></linearGradient></defs><defs><linearGradient id="grad1_1" x1="43.8%" y1="0%" x2="100%" y2="100%"><stop offset="14.444444444444446%" stop-color="#095dfe" stop-opacity="1"></stop><stop offset="85.55555555555554%" stop-color="#001220" stop-opacity="1"></stop></linearGradient></defs><defs><linearGradient id="grad2_0" x1="0%" y1="0%" x2="56.3%" y2="100%"><stop offset="14.444444444444446%" stop-color="#095dfe" stop-opacity="1"></stop><stop offset="85.55555555555554%" stop-color="#095dfe" stop-opacity="1"></stop></linearGradient></defs><defs><linearGradient id="grad2_1" x1="0%" y1="0%" x2="56.3%" y2="100%"><stop offset="14.444444444444446%" stop-color="#001220" stop-opacity="1"></stop><stop offset="85.55555555555554%" stop-color="#095dfe" stop-opacity="1"></stop></linearGradient></defs><g transform="translate(960, 0)"><path d="M0 243C-40 232.7 -80 222.5 -117.5 203.5C-155 184.5 -189.9 156.9 -210.4 121.5C-230.9 86.1 -237 43.1 -243 0L0 0Z" fill="#003d8c"></path><path d="M0 121.5C-20 116.4 -40 111.2 -58.7 101.8C-77.5 92.3 -95 78.4 -105.2 60.8C-115.5 43.1 -118.5 21.5 -121.5 0L0 0Z" fill="#095dfe"></path></g><g transform="translate(0, 540)"><path d="M0 -243C40 -232.7 80 -222.5 117.5 -203.5C155 -184.5 189.9 -156.9 210.4 -121.5C230.9 -86.1 237 -43.1 243 0L0 0Z" fill="#003d8c"></path><path d="M0 -121.5C20 -116.4 40 -111.2 58.7 -101.8C77.5 -92.3 95 -78.4 105.2 -60.8C115.5 -43.1 118.5 -21.5 121.5 0L0 0Z" fill="#095dfe"></path></g></svg>